<svg xmlns="http://www.w3.org/2000/svg" xmlns:xlink="http://www.w3.org/1999/xlink" width="511.478" height="409.552" viewBox="0 0 511.478 409.552">
  <defs>
    <linearGradient id="linear-gradient" x1="0.103" y1="0.116" x2="0.965" y2="1.042" gradientUnits="objectBoundingBox">
      <stop offset="0" stop-color="#2fbe45"/>
      <stop offset="1" stop-color="#0f4f18"/>
    </linearGradient>
  </defs>
  <path id="Union_2" data-name="Union 2" d="M65.534,409.552c-13.373,0-24.295-1.6-33.388-4.891-7.9-2.861-13.307-6.586-18.074-9.873l-.023-.015q-.715-.494-1.417-.976c-2.4-1.64-4.551-4.406-6.4-8.221A57.166,57.166,0,0,1,2.4,374.5,98.075,98.075,0,0,1,.055,360.59V125.547a42.057,42.057,0,0,1,.858-10.66,48.053,48.053,0,0,1,3.341-10.445,45.293,45.293,0,0,1,7.3-11.3A44.759,44.759,0,0,1,22.228,84.37,54.942,54.942,0,0,1,33,79.476a54.007,54.007,0,0,1,11.659-2.582c.173.009,17.475.858,36.135.858,10.9,0,20.059-.289,27.224-.858a49.067,49.067,0,0,0,14.161-2.983,21.906,21.906,0,0,0,7.465-4.681c3.182-3.19,3.4-6.188,3.406-6.217.07-.257,7.141-25.884,14.255-44.139a30.723,30.723,0,0,1,6.9-10.75A28.026,28.026,0,0,1,162.354,2.5,27.352,27.352,0,0,1,172,0h.8c15.121.005,67.692.02,109.355.02C310.263.02,328.19.014,335.442,0h.114A43.219,43.219,0,0,1,350.1,2.21a23.07,23.07,0,0,1,8.173,4.863,14.721,14.721,0,0,1,4.387,7.074c.03.132,3.065,13.388,7.535,27.215a161.478,161.478,0,0,0,7.766,20.121c3.152,6.511,6.167,10.586,8.963,12.112,5.32,2.905,16.263,4.317,33.457,4.317,8.77,0,17.942-.365,25.313-.658,3.773-.15,7.336-.292,10.245-.361.739-.017,1.475-.026,2.189-.026a64.327,64.327,0,0,1,11.241.9,46.767,46.767,0,0,1,9.869,2.856c6.05,2.5,11.893,6.364,18.949,12.521a32.561,32.561,0,0,1,7.916,10.8A51.048,51.048,0,0,1,509.89,115.8a63.3,63.3,0,0,1,1.212,13.5V319.2a251.4,251.4,0,0,1,.046,26.827A161.6,161.6,0,0,1,508.5,368.8c-1.638,8.226-3.938,14.773-6.838,19.461a38.591,38.591,0,0,1-11.906,11.982,54.552,54.552,0,0,1-13.8,6.323,66.763,66.763,0,0,1-16.17,2.893c-1.568,0-158.067-.506-271.838-.506-66.842,0-106.109.17-116.709.506-1.941.062-3.859.093-5.7.093ZM228.841,102.017a130.8,130.8,0,0,0-47.02,19.787,131.88,131.88,0,0,0-47.643,57.856,130.843,130.843,0,0,0-7.663,24.683,132.807,132.807,0,0,0,0,53,130.782,130.782,0,0,0,19.786,47.02,131.876,131.876,0,0,0,57.857,47.644,130.8,130.8,0,0,0,24.683,7.662,132.764,132.764,0,0,0,53,0,130.76,130.76,0,0,0,47.02-19.786,131.889,131.889,0,0,0,47.644-57.856,130.822,130.822,0,0,0,7.662-24.683,132.762,132.762,0,0,0,0-53,130.772,130.772,0,0,0-19.786-47.02,131.893,131.893,0,0,0-57.857-47.643,130.822,130.822,0,0,0-24.683-7.663,132.807,132.807,0,0,0-53,0Zm201.128,30.454a17.5,17.5,0,1,0,12.374-5.126A17.382,17.382,0,0,0,429.969,132.471ZM177.844,230.846a77.5,77.5,0,1,1,77.5,77.5A77.5,77.5,0,0,1,177.844,230.846Z" transform="translate(0)" fill="url(#linear-gradient)"/>
</svg>
