<svg xmlns="http://www.w3.org/2000/svg" width="38.779" height="34.429" viewBox="0 0 38.779 34.429">
  <g id="Group_2" data-name="Group 2" transform="translate(-34.222 -49.098)">
    <path id="Exclusion_1" data-name="Exclusion 1" d="M27.787,31.528h0l-4.434-4.591,2.784-2.875h0L4.355,1.505A9.056,9.056,0,0,1,9.392,0a10.128,10.128,0,0,1,7.224,3.11L18,4.538,19.386,3.11A10.144,10.144,0,0,1,26.612,0a8.966,8.966,0,0,1,5.894,2.154,9.851,9.851,0,0,1,2.518,3.28A10.134,10.134,0,0,1,33.2,16.771L26.137,24.06h0l4.527,4.688-2.877,2.779ZM18,31.5a2.2,2.2,0,0,1-1.592-.68L2.8,16.771A10.035,10.035,0,0,1,.045,10.745,10.158,10.158,0,0,1,1.564,4.374h0l-4.341-4.5L.1-2.9,4.355,1.505a9.119,9.119,0,0,0-.859.649A9.916,9.916,0,0,0,1.564,4.373h0L23.352,26.936,19.59,30.82A2.2,2.2,0,0,1,18,31.5Z" transform="translate(37 52)" fill="#636366"/>
  </g>
</svg>
