<svg xmlns="http://www.w3.org/2000/svg" xmlns:xlink="http://www.w3.org/1999/xlink" width="27" height="36.004" viewBox="0 0 27 36.004">
  <defs>
    <linearGradient id="linear-gradient" x1="0.5" y1="0.453" x2="0.751" y2="0.732" gradientUnits="objectBoundingBox">
      <stop offset="0" stop-color="#30c547"/>
      <stop offset="1" stop-color="#186324"/>
    </linearGradient>
  </defs>
  <path id="Icon_awesome-receipt" data-name="Icon awesome-receipt" d="M25.2.225l-2.7,3.15L18.675.225a1.118,1.118,0,0,0-1.35,0L13.5,3.375,9.675.225a1.118,1.118,0,0,0-1.35,0L4.5,3.375,1.8.225a1.124,1.124,0,0,0-1.8.9v33.75a1.124,1.124,0,0,0,1.8.9l2.7-3.15,3.825,3.15a1.118,1.118,0,0,0,1.35,0l3.825-3.15,3.825,3.15a1.118,1.118,0,0,0,1.35,0l3.825-3.15,2.7,3.15a1.125,1.125,0,0,0,1.8-.9V1.125a1.124,1.124,0,0,0-1.8-.9ZM22.5,25.313a.564.564,0,0,1-.562.563H5.063a.564.564,0,0,1-.562-.562V24.188a.564.564,0,0,1,.563-.562H21.938a.564.564,0,0,1,.563.563Zm0-6.75a.564.564,0,0,1-.562.563H5.063a.564.564,0,0,1-.562-.562V17.438a.564.564,0,0,1,.563-.562H21.938a.564.564,0,0,1,.563.563Zm0-6.75a.564.564,0,0,1-.562.563H5.063a.564.564,0,0,1-.562-.562V10.688a.564.564,0,0,1,.563-.562H21.938a.564.564,0,0,1,.563.563Z" transform="translate(0 0.002)" fill="url(#linear-gradient)"/>
</svg>
