<svg xmlns="http://www.w3.org/2000/svg" width="36" height="27" viewBox="0 0 36 27">
  <path id="Icon_fa-solid-ring" data-name="Icon fa-solid-ring" d="M4.5,14.625a3.087,3.087,0,0,0,1.2,2.13A26.823,26.823,0,0,1,18,14.063a26.823,26.823,0,0,1,12.3,2.693,3.087,3.087,0,0,0,1.2-2.13c0-.865-.759-2.25-3.368-3.558A23.33,23.33,0,0,0,18,9,23.33,23.33,0,0,0,7.868,11.067C5.259,12.375,4.5,13.76,4.5,14.625ZM18,17.438a25.877,25.877,0,0,0-8.641,1.385A24.954,24.954,0,0,0,18,20.25a24.954,24.954,0,0,0,8.641-1.427A25.877,25.877,0,0,0,18,17.438ZM0,14.625c0-3.488,2.77-6.033,5.857-7.58A27.786,27.786,0,0,1,18,4.5,27.786,27.786,0,0,1,30.143,7.045C33.23,8.592,36,11.137,36,14.625v6.75c0,3.487-2.77,6.033-5.857,7.58A27.786,27.786,0,0,1,18,31.5,27.786,27.786,0,0,1,5.857,28.955C2.77,27.408,0,24.862,0,21.375Z" transform="translate(0 -4.5)" fill="#fff"/>
</svg>
