<svg xmlns="http://www.w3.org/2000/svg" xmlns:xlink="http://www.w3.org/1999/xlink" width="33" height="33.007" viewBox="0 0 33 33.007">
  <defs>
    <linearGradient id="linear-gradient" x1="0.339" y1="0.355" x2="0.589" y2="0.607" gradientUnits="objectBoundingBox">
      <stop offset="0" stop-color="#32d74b"/>
      <stop offset="1" stop-color="#196c26"/>
    </linearGradient>
    <filter id="Icon_ionic-ios-settings" x="0" y="0" width="33" height="33.007" filterUnits="userSpaceOnUse">
      <feOffset input="SourceAlpha"/>
      <feGaussianBlur stdDeviation="1" result="blur"/>
      <feFlood/>
      <feComposite operator="in" in2="blur"/>
      <feComposite in="SourceGraphic"/>
    </filter>
  </defs>
  <g transform="matrix(1, 0, 0, 1, 0, 0)" filter="url(#Icon_ionic-ios-settings)">
    <path id="Icon_ionic-ios-settings-2" data-name="Icon ionic-ios-settings" d="M29.271,18A3.474,3.474,0,0,1,31.5,14.759a13.772,13.772,0,0,0-1.666-4.015,3.521,3.521,0,0,1-1.413.3,3.467,3.467,0,0,1-3.171-4.88A13.73,13.73,0,0,0,21.241,4.5a3.471,3.471,0,0,1-6.483,0,13.772,13.772,0,0,0-4.015,1.666,3.467,3.467,0,0,1-3.171,4.88,3.406,3.406,0,0,1-1.413-.3A14.076,14.076,0,0,0,4.5,14.766a3.473,3.473,0,0,1,.007,6.483,13.772,13.772,0,0,0,1.666,4.015,3.468,3.468,0,0,1,4.577,4.577,13.852,13.852,0,0,0,4.015,1.666,3.465,3.465,0,0,1,6.469,0,13.772,13.772,0,0,0,4.015-1.666,3.472,3.472,0,0,1,4.577-4.577,13.852,13.852,0,0,0,1.666-4.015A3.491,3.491,0,0,1,29.271,18ZM18.063,23.618a5.625,5.625,0,1,1,5.625-5.625A5.623,5.623,0,0,1,18.063,23.618Z" transform="translate(-1.5 -1.5)" fill="url(#linear-gradient)"/>
  </g>
</svg>
