<svg xmlns="http://www.w3.org/2000/svg" width="1360.712" height="1089.781" viewBox="0 0 1360.712 1089.781">
  <g id="Group_1" data-name="Group 1" transform="translate(-4341 -525)">
    <g id="Vector" transform="translate(4340.92 524.229)">
      <path id="Path_2" data-name="Path 2" d="M1171.15,275.1a53.852,53.852,0,0,1,76.28,0l97.56,97.786a54.138,54.138,0,0,1,0,76.454L721.029,1074.72a53.857,53.857,0,0,1-76.281,0l-97.565-97.785a54.149,54.149,0,0,1,0-76.454Z" fill="rgba(84,161,52,0.7)"/>
      <path id="Path_3" data-name="Path 3" d="M965.841,286.426a54.149,54.149,0,0,1,0,76.454l-97.565,97.785a53.853,53.853,0,0,1-76.281,0L523.57,191.633a54.147,54.147,0,0,1,0-76.454l97.564-97.785a53.854,53.854,0,0,1,76.282,0Z" fill="#54a134"/>
      <path id="Path_4" data-name="Path 4" d="M816.7,898.416a54.149,54.149,0,0,1,0,76.454l-97.565,97.78a53.839,53.839,0,0,1-76.281,0L363.171,792.338a54.147,54.147,0,0,1,0-76.454L460.735,618.1a53.851,53.851,0,0,1,76.281,0Z" fill="#54a134"/>
      <path id="Path_5" data-name="Path 5" d="M619.869,16.605a53.853,53.853,0,0,1,76.281,0l97.564,97.786a54.147,54.147,0,0,1,0,76.453L189.724,796.2a53.853,53.853,0,0,1-76.281,0L15.878,698.416a54.148,54.148,0,0,1,0-76.454Z" fill="rgba(84,161,52,0.7)"/>
    </g>
  </g>
</svg>
