<svg xmlns="http://www.w3.org/2000/svg" xmlns:xlink="http://www.w3.org/1999/xlink" width="4685.363" height="1089.781" viewBox="0 0 4685.363 1089.781">
  <defs>
    <linearGradient id="linear-gradient" x1="0.5" x2="0.5" y2="1" gradientUnits="objectBoundingBox">
      <stop offset="0" stop-color="#fff"/>
      <stop offset="0" stop-color="#8b8b8b"/>
      <stop offset="0" stop-color="#999"/>
      <stop offset="0.463" stop-color="#f1f1f1"/>
      <stop offset="0.783" stop-color="#fff"/>
      <stop offset="1" stop-color="gray"/>
    </linearGradient>
  </defs>
  <g id="Group_2" data-name="Group 2" transform="translate(-4341 -525)">
    <g id="Group_3" data-name="Group 3">
      <g id="Group_1" data-name="Group 1">
        <g id="Vector" transform="translate(4340.92 524.229)">
          <path id="Path_2" data-name="Path 2" d="M1171.15,275.1a53.852,53.852,0,0,1,76.28,0l97.56,97.786a54.138,54.138,0,0,1,0,76.454L721.029,1074.72a53.857,53.857,0,0,1-76.281,0l-97.565-97.785a54.149,54.149,0,0,1,0-76.454Z" fill="rgba(84,161,52,0.7)"/>
          <path id="Path_3" data-name="Path 3" d="M965.841,286.426a54.149,54.149,0,0,1,0,76.454l-97.565,97.785a53.853,53.853,0,0,1-76.281,0L523.57,191.633a54.147,54.147,0,0,1,0-76.454l97.564-97.785a53.854,53.854,0,0,1,76.282,0Z" fill="#54a134"/>
          <path id="Path_4" data-name="Path 4" d="M816.7,898.416a54.149,54.149,0,0,1,0,76.454l-97.565,97.78a53.839,53.839,0,0,1-76.281,0L363.171,792.338a54.147,54.147,0,0,1,0-76.454L460.735,618.1a53.851,53.851,0,0,1,76.281,0Z" fill="#54a134"/>
          <path id="Path_5" data-name="Path 5" d="M619.869,16.605a53.853,53.853,0,0,1,76.281,0l97.564,97.786a54.147,54.147,0,0,1,0,76.453L189.724,796.2a53.853,53.853,0,0,1-76.281,0L15.878,698.416a54.148,54.148,0,0,1,0-76.454Z" fill="rgba(84,161,52,0.7)"/>
        </g>
      </g>
    </g>
    <path id="Path_6" data-name="Path 6" d="M46.08,155.76H368.132v90.8H141.844v123.43H345.432v90.8H141.844V663.666H46.08ZM573.848,304.727q40.434,0,74.129,13.833a175.473,175.473,0,0,1,58.168,38.306q24.473,24.473,38.306,58.523t13.833,74.483q0,40.434-13.833,74.483t-38.306,58.523a175.473,175.473,0,0,1-58.168,38.306q-33.695,13.833-74.129,13.833t-74.129-13.833a175.474,175.474,0,0,1-58.168-38.306q-24.473-24.473-38.306-58.523t-13.833-74.483q0-40.434,13.833-74.483t38.306-58.523a175.474,175.474,0,0,1,58.168-38.306Q533.414,304.727,573.848,304.727Zm0,284.456a90.987,90.987,0,0,0,34.4-6.739,87.732,87.732,0,0,0,29.439-19.508,92.466,92.466,0,0,0,20.217-31.212q7.448-18.443,7.448-41.853t-7.448-41.853a92.466,92.466,0,0,0-20.217-31.212A87.732,87.732,0,0,0,608.253,397.3a92.1,92.1,0,0,0-69.163,0,88.683,88.683,0,0,0-29.084,19.508,92.465,92.465,0,0,0-20.217,31.212q-7.448,18.444-7.448,41.853t7.448,41.853a92.465,92.465,0,0,0,20.217,31.212,88.682,88.682,0,0,0,29.084,19.508A90.143,90.143,0,0,0,573.848,589.183ZM845.535,395.526H784.53V316.077h61.006v-106.4h92.927v106.4h85.124v79.449H938.462V530.305a95.121,95.121,0,0,0,2.483,22.345,35.98,35.98,0,0,0,9.576,17.379q9.931,11.35,28.375,11.35,12.059,0,19.153-2.483a59.885,59.885,0,0,0,13.478-6.739l26.247,81.577a153.2,153.2,0,0,1-35.114,11.7,204.576,204.576,0,0,1-41.5,3.9q-26.247,0-47.173-8.158t-35.114-22.345q-33.34-31.922-33.34-90.8Zm407.176-90.8q40.434,0,74.129,13.833a175.476,175.476,0,0,1,58.168,38.306q24.473,24.473,38.306,58.523t13.833,74.483q0,40.434-13.833,74.483t-38.306,58.523a175.476,175.476,0,0,1-58.168,38.306q-33.695,13.833-74.129,13.833t-74.129-13.833a175.473,175.473,0,0,1-58.168-38.306q-24.473-24.473-38.306-58.523t-13.833-74.483q0-40.434,13.833-74.483t38.306-58.523a175.473,175.473,0,0,1,58.168-38.306Q1212.277,304.727,1252.711,304.727Zm0,284.456a90.987,90.987,0,0,0,34.4-6.739,87.731,87.731,0,0,0,29.439-19.508,92.462,92.462,0,0,0,20.217-31.212q7.448-18.443,7.448-41.853t-7.448-41.853a92.462,92.462,0,0,0-20.217-31.212,87.731,87.731,0,0,0-29.439-19.508,92.1,92.1,0,0,0-69.163,0,88.683,88.683,0,0,0-29.084,19.508,92.464,92.464,0,0,0-20.217,31.212q-7.448,18.444-7.448,41.853t7.448,41.853a92.464,92.464,0,0,0,20.217,31.212,88.683,88.683,0,0,0,29.084,19.508A90.143,90.143,0,0,0,1252.711,589.183ZM1508.083,155.76h322.052v90.8H1603.847v123.43h203.588v90.8H1603.847V663.666h-95.764Zm384.476,507.906V155.76h92.927V663.666Zm333.4-358.939q40.434,0,74.129,13.833a175.473,175.473,0,0,1,58.168,38.306q24.473,24.473,38.306,58.523t13.833,74.483q0,40.434-13.833,74.483t-38.306,58.523a175.473,175.473,0,0,1-58.168,38.306q-33.695,13.833-74.129,13.833t-74.129-13.833a175.478,175.478,0,0,1-58.168-38.306q-24.473-24.473-38.306-58.523t-13.833-74.483q0-40.434,13.833-74.483t38.306-58.523a175.478,175.478,0,0,1,58.168-38.306Q2185.527,304.727,2225.961,304.727Zm0,284.456a90.987,90.987,0,0,0,34.4-6.739,87.731,87.731,0,0,0,29.438-19.508,92.464,92.464,0,0,0,20.217-31.212q7.448-18.443,7.448-41.853t-7.448-41.853a92.464,92.464,0,0,0-20.217-31.212,87.731,87.731,0,0,0-29.438-19.508,92.1,92.1,0,0,0-69.163,0,88.683,88.683,0,0,0-29.084,19.508,92.464,92.464,0,0,0-20.217,31.212q-7.448,18.444-7.448,41.853t7.448,41.853a92.464,92.464,0,0,0,20.217,31.212,88.683,88.683,0,0,0,29.084,19.508A90.143,90.143,0,0,0,2225.961,589.183ZM2426,316.077h104.277l57.459,217.775h4.966l68.808-217.775h95.764l69.518,217.775h4.966l56.75-217.775h102.858L2880,663.666H2779.976l-69.518-219.194h-4.966l-69.518,219.194h-98.6Z" transform="translate(6034.997 656.612)" fill="url(#linear-gradient)"/>
  </g>
</svg>
