<svg xmlns="http://www.w3.org/2000/svg" xmlns:xlink="http://www.w3.org/1999/xlink" width="46.168" height="30.004" viewBox="0 0 46.168 30.004">
  <defs>
    <linearGradient id="linear-gradient" x1="0.055" y1="0.122" x2="1.12" y2="1.043" gradientUnits="objectBoundingBox">
      <stop offset="0" stop-color="#30c346"/>
      <stop offset="1" stop-color="#0b4313"/>
    </linearGradient>
  </defs>
  <g id="Icon_ionic-ios-people" data-name="Icon ionic-ios-people" transform="translate(-2.215 -7.748)">
    <path id="Path_13" data-name="Path 13" d="M32.108,30.833c-1.152-.411-3.033-.432-3.866-.751a5.462,5.462,0,0,1-1.789-.833,11.055,11.055,0,0,1-.3-2.931,4.734,4.734,0,0,0,1.018-1.44,16,16,0,0,0,.494-2.828s.679.288.946-1.069c.226-1.172.658-1.789.545-2.653s-.6-.658-.6-.658.6-.874.6-3.846c0-3.064-2.314-6.077-6.642-6.077s-6.653,3.023-6.653,6.077c0,2.972.586,3.846.586,3.846s-.483-.206-.6.658.308,1.481.545,2.653c.267,1.368.946,1.069.946,1.069a16.153,16.153,0,0,0,.494,2.828,4.734,4.734,0,0,0,1.018,1.44,11.056,11.056,0,0,1-.3,2.931,5.257,5.257,0,0,1-1.789.823c-.823.319-2.7.36-3.866.771a7.257,7.257,0,0,0-4.709,6.91H36.808A7.242,7.242,0,0,0,32.108,30.833Z" transform="translate(2.764 0)" fill="url(#linear-gradient)"/>
    <path id="Path_14" data-name="Path 14" d="M13.371,24.225s2.458-.082,3.434-.956c-1.594-2.416-.73-5.234-1.059-7.866s-1.82-4.2-4.8-4.2H10.9a4.352,4.352,0,0,0-4.761,4.2c-.329,2.622.586,5.758-1.049,7.866.977.884,3.445.853,3.445.853h0a5.208,5.208,0,0,1-.1,1.727,2.6,2.6,0,0,1-1.234.566,23.858,23.858,0,0,0-2.663.74,4.329,4.329,0,0,0-2.324,3.825h8.257c.226-.823,1.779-2.293,3.29-3.064a6.9,6.9,0,0,1,2.54-.535s.391-.617-.895-.853a8.765,8.765,0,0,1-1.974-.689C13.238,25.614,13.371,24.225,13.371,24.225Z" transform="translate(0 1.6)" fill="url(#linear-gradient)"/>
    <path id="Path_15" data-name="Path 15" d="M27.242,24.225s-2.458-.082-3.434-.956c1.594-2.416.73-5.234,1.059-7.866s1.82-4.2,4.8-4.2h.041a4.352,4.352,0,0,1,4.761,4.2c.329,2.622-.586,5.758,1.049,7.866-.977.884-3.445.853-3.445.853h0a5.208,5.208,0,0,0,.1,1.727,2.6,2.6,0,0,0,1.234.566,23.858,23.858,0,0,1,2.663.74A4.329,4.329,0,0,1,38.4,30.981H30.142c-.226-.823-1.779-2.293-3.29-3.064a6.9,6.9,0,0,0-2.54-.535s-.391-.617.895-.853a8.765,8.765,0,0,0,1.974-.689C27.376,25.614,27.242,24.225,27.242,24.225Z" transform="translate(9.985 1.6)" fill="url(#linear-gradient)"/>
  </g>
</svg>
